<svg width="254" height="121" viewBox="0 0 254 121" fill="none" xmlns="http://www.w3.org/2000/svg">
    <path d="M17.4093 26.9158C15.5587 26.9158 13.9701 27.6002 12.6434 28.9607C11.3124 30.3255 10.6491 31.969 10.6491 33.8957C10.6491 35.8477 11.3124 37.5082 12.6434 38.8814C13.9701 40.2461 15.5587 40.9264 17.4093 40.9264C18.2966 40.9264 19.1374 40.8208 19.9275 40.6053C20.7261 40.3813 21.3134 40.1574 21.6852 39.9293L22.1753 39.5912L25.5047 46.4022C25.2428 46.5966 24.8836 46.8332 24.4231 47.112C23.9583 47.3824 22.9063 47.7543 21.2627 48.2275C19.6149 48.7091 17.853 48.9542 15.9728 48.9542C11.8025 48.9542 8.13511 47.4923 4.97046 44.56C1.81427 41.6193 0.238281 38.0998 0.238281 33.9971C0.238281 29.8649 1.81427 26.3158 4.97046 23.3497C8.13511 20.3752 11.8025 18.8879 15.9728 18.8879C17.853 18.8879 19.5895 19.1076 21.1782 19.5471C22.7668 19.9865 23.8907 20.4344 24.5583 20.8822L25.5047 21.5413L22.1753 28.2509C20.9585 27.3636 19.3698 26.9158 17.4093 26.9158Z" fill="black"/>
    <path d="M24.2842 48.1261V19.7161H34.0866V23.806H34.188C34.264 23.6624 34.3823 23.4807 34.5429 23.2652C34.7119 23.0413 35.071 22.6526 35.6245 22.0991C36.1865 21.5498 36.778 21.0512 37.3991 20.6118C38.0286 20.1639 38.8399 19.7625 39.8328 19.4119C40.8341 19.0654 41.8524 18.8879 42.8918 18.8879C43.9607 18.8879 45.0086 19.0358 46.0353 19.3274C47.0705 19.6231 47.831 19.9147 48.3169 20.2062L49.0943 20.6625L44.9875 28.9607C43.7706 27.9256 42.0721 27.4059 39.9004 27.4059C38.7173 27.4059 37.6948 27.6678 36.8414 28.1833C35.9963 28.703 35.3963 29.3325 35.0499 30.0762C34.6992 30.8114 34.4499 31.4367 34.3063 31.9521C34.1584 32.4718 34.0866 32.8775 34.0866 33.169V48.1261H24.2842Z" fill="black"/>
    <path d="M75.3867 35.2816H54.7848C54.7848 37.2759 55.4313 38.7547 56.7284 39.7095C58.0213 40.6687 59.4241 41.1461 60.9367 41.1461C62.5253 41.1461 63.7802 40.9391 64.7055 40.5208C65.6266 40.094 66.6829 39.249 67.8659 37.9857L74.9473 41.5348C71.9939 46.4825 67.0801 48.9542 60.2099 48.9542C55.9256 48.9542 52.254 47.4923 49.1907 44.56C46.1233 41.6193 44.5938 38.0829 44.5938 33.9464C44.5938 29.8142 46.1233 26.2693 49.1907 23.3159C52.254 20.3667 55.9256 18.8879 60.2099 18.8879C64.714 18.8879 68.3814 20.1893 71.2123 22.792C74.0389 25.3947 75.4543 29.1128 75.4543 33.9464C75.4543 34.614 75.429 35.0576 75.3867 35.2816ZM55.0721 29.8565H65.8717C65.6435 28.3819 65.0604 27.2495 64.114 26.4594C63.176 25.6609 61.9718 25.2595 60.4973 25.2595C58.8748 25.2595 57.5777 25.682 56.6101 26.527C55.651 27.3721 55.1398 28.4833 55.0721 29.8565Z" fill="black"/>
    <path d="M76.7693 44.6107C74.1075 41.7165 72.7808 38.1674 72.7808 33.9633C72.7808 29.7508 74.1075 26.1848 76.7693 23.2652C79.4269 20.3498 82.8071 18.8879 86.9097 18.8879C90.6701 18.8879 93.7756 20.0668 96.222 22.4202V19.7161H106.024V48.1261H96.3234V44.915H96.222C93.7756 47.6106 90.6701 48.9542 86.9097 48.9542C82.8071 48.9542 79.4269 47.5092 76.7693 44.6107ZM85.1013 29.1297C83.8253 30.3804 83.1916 31.9859 83.1916 33.9464C83.1916 35.9069 83.8 37.5082 85.0168 38.7462C86.2421 39.9757 87.8561 40.5884 89.8504 40.5884C91.7644 40.5884 93.3404 39.9631 94.5826 38.7124C95.8206 37.4533 96.4417 35.8646 96.4417 33.9464C96.4417 31.9859 95.8037 30.3804 94.5319 29.1297C93.2559 27.8791 91.6968 27.2538 89.8504 27.2538C87.966 27.2538 86.3858 27.8791 85.1013 29.1297Z" fill="black"/>
    <path d="M109.116 19.716V9.13623H118.918V19.716H124.901V27.1861H118.918V36.2111C118.918 38.8391 119.653 40.1489 121.132 40.1489C121.504 40.1489 121.893 40.0771 122.298 39.9292C122.704 39.7856 123.016 39.6377 123.245 39.4898L123.566 39.2701L125.999 47.1796C123.904 48.3627 121.504 48.9542 118.8 48.9542C116.962 48.9542 115.377 48.6331 114.051 47.9908C112.72 47.3402 111.71 46.4698 111.025 45.3881C110.337 44.2981 109.847 43.153 109.555 41.9573C109.259 40.7531 109.116 39.4687 109.116 38.104V27.1861H105.009V19.716H109.116Z" fill="black"/>
    <path d="M126.053 44.6107C123.392 41.7165 122.065 38.1674 122.065 33.9633C122.065 29.7508 123.392 26.1848 126.053 23.2652C128.711 20.3498 132.091 18.8879 136.194 18.8879C139.954 18.8879 143.06 20.0668 145.506 22.4202V19.7161H155.309V48.1261H145.608V44.915H145.506C143.06 47.6106 139.954 48.9542 136.194 48.9542C132.091 48.9542 128.711 47.5092 126.053 44.6107ZM134.386 29.1297C133.11 30.3804 132.476 31.9859 132.476 33.9464C132.476 35.9069 133.084 37.5082 134.301 38.7462C135.526 39.9757 137.14 40.5884 139.135 40.5884C141.049 40.5884 142.625 39.9631 143.867 38.7124C145.105 37.4533 145.726 35.8646 145.726 33.9464C145.726 31.9859 145.088 30.3804 143.816 29.1297C142.54 27.8791 140.981 27.2538 139.135 27.2538C137.25 27.2538 135.67 27.8791 134.386 29.1297Z" fill="black"/>
    <path d="M156.744 48.1261V0.5H166.546V48.1261H156.744Z" fill="black"/>
    <path d="M189.516 19.7161H200.822L178.497 62.5254H167.207L177.009 43.6981L163.54 19.7161H174.846L182.772 34.2844L189.516 19.7161Z" fill="black"/>
    <path d="M210.169 18.8879C211.8 18.8879 213.406 19.0738 214.986 19.4457C216.575 19.809 217.758 20.1724 218.535 20.5442L219.701 21.1019L216.49 27.5242C214.268 26.3411 212.164 25.7496 210.169 25.7496C209.062 25.7496 208.281 25.8764 207.82 26.1214C207.355 26.358 207.127 26.8101 207.127 27.4735C207.127 27.6214 207.144 27.7692 207.178 27.9129C207.22 28.0608 207.296 28.2002 207.398 28.3354C207.508 28.4622 207.609 28.5678 207.702 28.6565C207.803 28.7495 207.96 28.8509 208.175 28.9607C208.399 29.0748 208.572 29.1593 208.699 29.2142C208.834 29.2734 209.045 29.3579 209.341 29.4678C209.633 29.5692 209.852 29.6494 210 29.7044C210.157 29.7635 210.41 29.848 210.761 29.9579C211.107 30.0719 211.374 30.1438 211.555 30.1776C212.704 30.5156 213.702 30.8874 214.547 31.293C215.4 31.6986 216.296 32.2521 217.234 32.9493C218.18 33.6507 218.911 34.5337 219.431 35.6027C219.946 36.6759 220.208 37.897 220.208 39.2701C220.208 45.7262 215.717 48.9542 206.739 48.9542C204.71 48.9542 202.784 48.6415 200.959 48.0247C199.133 47.3951 197.807 46.7656 196.987 46.1318L195.77 45.1347L199.759 38.442C200.063 38.6913 200.451 38.9955 200.925 39.3546C201.406 39.7053 202.277 40.1828 203.527 40.7912C204.787 41.3996 205.877 41.7038 206.789 41.7038C208.826 41.7038 209.848 41.0236 209.848 39.6588C209.848 39.0293 209.586 38.5392 209.071 38.1885C208.551 37.842 207.672 37.4449 206.434 37.0054C205.192 36.5576 204.225 36.1435 203.527 35.7717C201.757 34.8506 200.354 33.807 199.319 32.6451C198.28 31.4874 197.764 29.941 197.764 28.0143C197.764 25.1412 198.88 22.9061 201.111 21.3047C203.35 19.6949 206.371 18.8879 210.169 18.8879Z" fill="black"/>
    <path d="M220.801 3.88012C221.95 2.73087 223.319 2.15625 224.908 2.15625C226.497 2.15625 227.857 2.73087 228.998 3.88012C230.147 5.02091 230.722 6.38141 230.722 7.97008C230.722 9.55874 230.147 10.9277 228.998 12.0769C227.857 13.2177 226.497 13.7839 224.908 13.7839C223.319 13.7839 221.95 13.2177 220.801 12.0769C219.66 10.9277 219.094 9.55874 219.094 7.97008C219.094 6.38141 219.66 5.02091 220.801 3.88012ZM219.872 19.716V48.126H229.674V19.716H219.872Z" fill="black"/>
    <path d="M243.726 18.8879C245.357 18.8879 246.963 19.0738 248.543 19.4457C250.132 19.809 251.315 20.1724 252.092 20.5442L253.258 21.1019L250.047 27.5242C247.825 26.3411 245.721 25.7496 243.726 25.7496C242.62 25.7496 241.838 25.8764 241.377 26.1214C240.913 26.358 240.684 26.8101 240.684 27.4735C240.684 27.6214 240.701 27.7692 240.735 27.9129C240.777 28.0608 240.853 28.2002 240.955 28.3354C241.065 28.4622 241.166 28.5678 241.259 28.6565C241.36 28.7495 241.517 28.8509 241.732 28.9607C241.956 29.0748 242.129 29.1593 242.256 29.2142C242.391 29.2734 242.603 29.3579 242.898 29.4678C243.19 29.5692 243.41 29.6494 243.557 29.7044C243.714 29.7635 243.967 29.848 244.318 29.9579C244.664 30.0719 244.931 30.1438 245.112 30.1776C246.262 30.5156 247.259 30.8874 248.104 31.293C248.957 31.6986 249.853 32.2521 250.791 32.9493C251.737 33.6507 252.468 34.5337 252.988 35.6027C253.504 36.6759 253.765 37.897 253.765 39.2701C253.765 45.7262 249.274 48.9542 240.296 48.9542C238.268 48.9542 236.341 48.6415 234.516 48.0247C232.69 47.3951 231.364 46.7656 230.544 46.1318L229.327 45.1347L233.316 38.442C233.62 38.6913 234.009 38.9955 234.482 39.3546C234.964 39.7053 235.834 40.1828 237.085 40.7912C238.344 41.3996 239.434 41.7038 240.346 41.7038C242.383 41.7038 243.405 41.0236 243.405 39.6588C243.405 39.0293 243.143 38.5392 242.628 38.1885C242.108 37.842 241.229 37.4449 239.991 37.0054C238.749 36.5576 237.782 36.1435 237.085 35.7717C235.314 34.8506 233.911 33.807 232.876 32.6451C231.837 31.4874 231.321 29.941 231.321 28.0143C231.321 25.1412 232.437 22.9061 234.668 21.3047C236.907 19.6949 239.928 18.8879 243.726 18.8879Z" fill="black"/>
    <path d="M66.7216 63.5057C68.3525 63.5057 69.9581 63.6916 71.5383 64.0635C73.127 64.4268 74.31 64.7902 75.0874 65.162L76.2536 65.7197L73.0424 72.142C70.82 70.9589 68.7159 70.3674 66.7216 70.3674C65.6146 70.3674 64.833 70.4942 64.3724 70.7392C63.9077 70.9758 63.6795 71.4279 63.6795 72.0913C63.6795 72.2392 63.6964 72.387 63.7302 72.5307C63.7724 72.6786 63.8485 72.818 63.9499 72.9532C64.0598 73.08 64.1612 73.1856 64.2541 73.2743C64.3555 73.3673 64.5119 73.4687 64.7273 73.5785C64.9513 73.6926 65.1245 73.7771 65.2513 73.832C65.3865 73.8912 65.5977 73.9757 65.8935 74.0855C66.185 74.187 66.4047 74.2672 66.5526 74.3222C66.7089 74.3813 66.9624 74.4658 67.3131 74.5757C67.6596 74.6897 67.9258 74.7616 68.1075 74.7954C69.2567 75.1334 70.2538 75.5052 71.0989 75.9108C71.9524 76.3164 72.8481 76.8699 73.7861 77.5671C74.7325 78.2685 75.4635 79.1515 75.9832 80.2205C76.4986 81.2937 76.7606 82.5148 76.7606 83.8879C76.7606 90.344 72.2692 93.572 63.2908 93.572C61.2627 93.572 59.336 93.2593 57.5108 92.6425C55.6855 92.0129 54.3588 91.3834 53.5391 90.7496L52.3223 89.7525L56.3108 83.0598C56.615 83.3091 57.0037 83.6133 57.477 83.9724C57.9586 84.3231 58.829 84.8006 60.0797 85.409C61.3388 86.0174 62.4288 86.3216 63.3415 86.3216C65.378 86.3216 66.4005 85.6414 66.4005 84.2766C66.4005 83.6471 66.1385 83.157 65.6231 82.8063C65.1034 82.4598 64.2245 82.0627 62.9866 81.6232C61.7444 81.1754 60.7768 80.7613 60.0797 80.3895C58.3093 79.4684 56.9066 78.4248 55.8714 77.2629C54.832 76.1052 54.3165 74.5588 54.3165 72.6321C54.3165 69.759 55.432 67.5239 57.6629 65.9225C59.9022 64.3127 62.9232 63.5057 66.7216 63.5057Z" fill="black"/>
    <path d="M78.08 64.3338V53.754H87.8824V64.3338H93.8652V71.8039H87.8824V80.8289C87.8824 83.4569 88.6175 84.7667 90.0964 84.7667C90.4682 84.7667 90.8569 84.6949 91.2625 84.547C91.6681 84.4034 91.9808 84.2555 92.2089 84.1076L92.53 83.8879L94.9637 91.7974C92.8681 92.9805 90.4682 93.572 87.7641 93.572C85.9261 93.572 84.3417 93.2509 83.015 92.6086C81.6841 91.958 80.6742 91.0876 79.9898 90.0059C79.3011 88.9159 78.811 87.7708 78.5194 86.5751C78.2237 85.3709 78.08 84.0865 78.08 82.7218V71.8039H73.9731V64.3338H78.08Z" fill="black"/>
    <path d="M102.336 64.3339V77.8375C102.336 80.6557 102.759 82.6542 103.604 83.8372C104.457 85.0118 105.902 85.5949 107.93 85.5949C109.958 85.5949 111.395 85.0118 112.24 83.8372C113.093 82.6542 113.524 80.6557 113.524 77.8375V64.3339H123.327V80.2205C123.327 84.9527 122.097 88.3624 119.642 90.4454C117.183 92.5326 113.279 93.572 107.93 93.572C102.577 93.572 98.6728 92.5326 96.218 90.4454C93.759 88.3624 92.5337 84.9527 92.5337 80.2205V64.3339H102.336Z" fill="black"/>
    <path d="M126.139 89.2285C123.478 86.3343 122.151 82.7851 122.151 78.5811C122.151 74.3686 123.478 70.8026 126.139 67.883C128.797 64.9676 132.177 63.5057 136.28 63.5057C140.04 63.5057 143.146 64.6845 145.592 67.038V45.1178H155.394V92.7439H145.693V89.5327H145.592C143.146 92.2284 140.04 93.572 136.28 93.572C132.177 93.572 128.797 92.127 126.139 89.2285ZM134.471 73.7475C133.195 74.9982 132.562 76.6037 132.562 78.5642C132.562 80.5247 133.17 82.126 134.387 83.364C135.612 84.5935 137.226 85.2062 139.221 85.2062C141.135 85.2062 142.711 84.5808 143.953 83.3302C145.191 82.0711 145.812 80.4824 145.812 78.5642C145.812 76.6037 145.174 74.9982 143.902 73.7475C142.626 72.4969 141.067 71.8715 139.221 71.8715C137.336 71.8715 135.756 72.4969 134.471 73.7475Z" fill="black"/>
    <path d="M157.759 48.4979C158.908 47.3487 160.277 46.774 161.866 46.774C163.455 46.774 164.815 47.3487 165.956 48.4979C167.105 49.6387 167.68 50.9992 167.68 52.5879C167.68 54.1765 167.105 55.5455 165.956 56.6947C164.815 57.8355 163.455 58.4017 161.866 58.4017C160.277 58.4017 158.908 57.8355 157.759 56.6947C156.618 55.5455 156.052 54.1765 156.052 52.5879C156.052 50.9992 156.618 49.6387 157.759 48.4979ZM156.83 64.3338V92.7438H166.632V64.3338H156.83Z" fill="black"/>
    <path d="M171.017 89.3637C167.861 86.5582 166.285 82.9584 166.285 78.5642C166.285 74.1701 167.929 70.566 171.22 67.7478C174.507 64.9212 178.572 63.5057 183.406 63.5057C188.171 63.5057 192.185 64.9254 195.456 67.7647C198.722 70.604 200.357 74.2039 200.357 78.5642C200.357 82.9246 198.756 86.5202 195.557 89.3468C192.367 92.165 188.315 93.572 183.406 93.572C178.31 93.572 174.182 92.1693 171.017 89.3637ZM178.606 73.7475C177.33 74.9982 176.696 76.6037 176.696 78.5642C176.696 80.5247 177.304 82.126 178.521 83.364C179.747 84.5935 181.361 85.2062 183.355 85.2062C185.269 85.2062 186.845 84.5809 188.087 83.3302C189.325 82.0711 189.946 80.4824 189.946 78.5642C189.946 76.6037 189.308 74.9982 188.036 73.7475C186.76 72.4969 185.201 71.8716 183.355 71.8716C181.47 71.8716 179.89 72.4969 178.606 73.7475Z" fill="black"/>
    <path d="M23.8396 112.709C23.9622 112.709 24.0593 112.751 24.1269 112.827C24.203 112.907 24.2453 113.009 24.2453 113.131V116.444C24.2453 116.909 24.1438 117.319 23.941 117.678C23.7382 118.041 23.4551 118.328 23.096 118.54C22.7453 118.742 22.3524 118.844 21.913 118.844C21.4609 118.844 21.0553 118.742 20.6961 118.54C20.3328 118.328 20.0539 118.041 19.8511 117.678C19.6483 117.319 19.5469 116.909 19.5469 116.444V113.131C19.5469 113.009 19.5849 112.907 19.6652 112.827C19.7539 112.751 19.8595 112.709 19.9863 112.709C20.0961 112.709 20.1933 112.751 20.2736 112.827C20.3623 112.907 20.4088 113.009 20.4088 113.131V116.444C20.4088 116.748 20.4764 117.019 20.6116 117.255C20.7468 117.492 20.9243 117.678 21.1524 117.813C21.389 117.948 21.6426 118.016 21.913 118.016C22.1834 118.016 22.4369 117.948 22.6735 117.813C22.9101 117.678 23.096 117.492 23.2312 117.255C23.3749 117.019 23.4509 116.748 23.4509 116.444V113.131C23.4509 113.009 23.4847 112.907 23.5523 112.827C23.6284 112.751 23.7256 112.709 23.8396 112.709Z" fill="black"/>
    <path d="M31.6254 114.145C32.6606 114.145 33.1803 114.766 33.1803 116.004V118.354C33.1803 118.48 33.1381 118.582 33.062 118.658C32.9817 118.738 32.8845 118.776 32.7747 118.776C32.6479 118.776 32.5465 118.738 32.4705 118.658C32.4029 118.582 32.3691 118.48 32.3691 118.354V116.021C32.3691 115.675 32.2888 115.404 32.1325 115.21C31.9719 115.007 31.7184 114.906 31.3719 114.906C31.1353 114.906 30.9198 114.957 30.7297 115.058C30.548 115.159 30.4001 115.295 30.2903 115.464C30.1889 115.633 30.1382 115.819 30.1382 116.021V118.354C30.1382 118.48 30.0959 118.582 30.0199 118.658C29.9396 118.738 29.8382 118.776 29.7157 118.776C29.6016 118.776 29.5044 118.738 29.4284 118.658C29.3481 118.582 29.3101 118.48 29.3101 118.354V114.652C29.3101 114.543 29.3481 114.445 29.4284 114.365C29.5044 114.289 29.6016 114.247 29.7157 114.247C29.8382 114.247 29.9396 114.289 30.0199 114.365C30.0959 114.445 30.1382 114.543 30.1382 114.652V114.957C30.2818 114.733 30.4931 114.543 30.7635 114.382C31.0339 114.226 31.3212 114.145 31.6254 114.145Z" fill="black"/>
    <path d="M39.0405 118.354C39.0405 118.48 38.9983 118.582 38.9222 118.658C38.842 118.738 38.7448 118.776 38.6349 118.776C38.5082 118.776 38.4068 118.738 38.3307 118.658C38.2504 118.582 38.2124 118.48 38.2124 118.354V112.793C38.2124 112.671 38.2504 112.569 38.3307 112.489C38.4194 112.413 38.5208 112.371 38.6349 112.371C38.7448 112.371 38.842 112.413 38.9222 112.489C38.9983 112.569 39.0405 112.671 39.0405 112.793V118.354Z" fill="black"/>
    <path d="M48.0612 116.342C48.0485 116.444 48.0021 116.537 47.926 116.613C47.8457 116.68 47.7485 116.714 47.6387 116.714H44.5966C44.6388 117.133 44.7994 117.471 45.0698 117.728C45.3487 117.978 45.6951 118.1 46.1007 118.1C46.3796 118.1 46.6078 118.062 46.7768 117.982C46.9458 117.906 47.0979 117.796 47.2331 117.661C47.3218 117.618 47.4063 117.593 47.4866 117.593C47.588 117.593 47.6725 117.627 47.7401 117.695C47.8077 117.762 47.8415 117.842 47.8415 117.931C47.8415 118.058 47.7781 118.168 47.6556 118.269C47.4866 118.438 47.2584 118.582 46.9796 118.692C46.7092 118.802 46.4303 118.861 46.1514 118.861C45.6782 118.861 45.2599 118.768 44.9008 118.573C44.5501 118.371 44.2797 118.096 44.0896 117.745C43.8952 117.399 43.8022 116.997 43.8022 116.545C43.8022 116.064 43.8952 115.641 44.0896 115.278C44.2924 114.906 44.5543 114.627 44.8839 114.433C45.2092 114.243 45.5599 114.145 45.9317 114.145C46.3035 114.145 46.65 114.243 46.9796 114.433C47.3049 114.614 47.5626 114.872 47.757 115.21C47.9471 115.548 48.0485 115.928 48.0612 116.342ZM45.9317 114.906C45.6148 114.906 45.3402 114.999 45.1036 115.176C44.867 115.358 44.7064 115.641 44.6304 116.021H47.1824V115.954C47.157 115.641 47.0218 115.388 46.7768 115.193C46.5275 115.003 46.2444 114.906 45.9317 114.906Z" fill="black"/>
    <path d="M56.4274 114.179C56.5499 114.179 56.6513 114.221 56.7316 114.297C56.8077 114.378 56.8499 114.479 56.8499 114.602V118.354C56.8499 118.48 56.8077 118.582 56.7316 118.658C56.6513 118.738 56.5499 118.776 56.4274 118.776C56.3007 118.776 56.1992 118.738 56.1232 118.658C56.0556 118.582 56.0218 118.48 56.0218 118.354V118.134C55.8739 118.337 55.6669 118.514 55.3965 118.658C55.1345 118.793 54.8599 118.861 54.5683 118.861C54.1712 118.861 53.812 118.759 53.4867 118.556C53.1698 118.354 52.9205 118.075 52.7431 117.711C52.5614 117.352 52.4727 116.947 52.4727 116.495C52.4727 116.047 52.5614 115.641 52.7431 115.278C52.9205 114.919 53.1698 114.644 53.4867 114.45C53.812 114.247 54.1627 114.145 54.5345 114.145C54.8387 114.145 55.1176 114.209 55.3796 114.331C55.65 114.458 55.8612 114.619 56.0218 114.821V114.602C56.0218 114.479 56.0556 114.378 56.1232 114.297C56.1992 114.221 56.3007 114.179 56.4274 114.179ZM54.6697 118.1C54.9401 118.1 55.1768 118.033 55.3796 117.897C55.5908 117.754 55.7556 117.559 55.8697 117.323C55.9922 117.078 56.0556 116.799 56.0556 116.495C56.0556 116.203 55.9922 115.937 55.8697 115.7C55.7556 115.455 55.5908 115.261 55.3796 115.126C55.1768 114.982 54.9401 114.906 54.6697 114.906C54.3867 114.906 54.1374 114.974 53.9261 115.109C53.7233 115.244 53.5585 115.438 53.436 115.683C53.3219 115.92 53.267 116.19 53.267 116.495C53.267 116.799 53.3219 117.078 53.436 117.323C53.5585 117.559 53.7233 117.754 53.9261 117.897C54.1374 118.033 54.3867 118.1 54.6697 118.1Z" fill="black"/>
    <path d="M61.541 118.066C61.4819 117.99 61.4565 117.91 61.4565 117.83C61.4565 117.72 61.5157 117.623 61.6425 117.542C61.6974 117.5 61.765 117.475 61.8453 117.475C61.9467 117.475 62.0396 117.521 62.1326 117.61C62.3016 117.804 62.479 117.948 62.6734 118.049C62.8762 118.151 63.117 118.202 63.4001 118.202C63.624 118.193 63.8142 118.142 63.9747 118.049C64.1437 117.948 64.2282 117.792 64.2282 117.576C64.2282 117.386 64.1437 117.238 63.9747 117.137C63.8057 117.035 63.5564 116.942 63.2311 116.849C62.9015 116.761 62.6311 116.672 62.4199 116.579C62.2044 116.478 62.0227 116.338 61.8791 116.157C61.7312 115.979 61.6594 115.742 61.6594 115.447C61.6594 115.189 61.7312 114.965 61.8791 114.771C62.0227 114.568 62.2213 114.416 62.4706 114.314C62.7156 114.205 62.9818 114.145 63.2649 114.145C63.5438 114.145 63.8226 114.196 64.093 114.297C64.3719 114.399 64.6001 114.559 64.7691 114.771C64.8367 114.851 64.8705 114.935 64.8705 115.024C64.8705 115.117 64.824 115.206 64.7353 115.295C64.6761 115.341 64.6043 115.362 64.5156 115.362C64.4142 115.362 64.3297 115.328 64.262 115.261C64.148 115.126 64.0001 115.024 63.8226 114.957C63.641 114.881 63.4424 114.838 63.2311 114.838C63.0156 114.838 62.8297 114.885 62.6734 114.974C62.5255 115.054 62.4537 115.202 62.4537 115.413C62.4537 115.616 62.5382 115.768 62.7072 115.869C62.8762 115.971 63.1382 116.068 63.5015 116.157C63.8057 116.237 64.0592 116.321 64.262 116.41C64.4649 116.503 64.6339 116.642 64.7691 116.833C64.9043 117.014 64.9719 117.251 64.9719 117.542C64.9719 117.813 64.8916 118.049 64.7353 118.252C64.5874 118.447 64.3846 118.599 64.1268 118.709C63.8776 118.81 63.6114 118.861 63.3325 118.861C62.9692 118.861 62.6311 118.797 62.3185 118.675C62.0143 118.552 61.7523 118.349 61.541 118.066Z" fill="black"/>
    <path d="M71.9248 114.162C72.9389 114.162 73.4459 114.796 73.4459 116.055V118.354C73.4459 118.48 73.4036 118.582 73.3276 118.658C73.2473 118.738 73.1501 118.776 73.0403 118.776C72.9135 118.776 72.8121 118.738 72.7361 118.658C72.6558 118.582 72.6178 118.48 72.6178 118.354V116.055C72.6178 115.303 72.3009 114.923 71.6713 114.923C71.3333 114.923 71.0502 115.037 70.8263 115.261C70.5981 115.476 70.4883 115.743 70.4883 116.055V118.354C70.4883 118.48 70.446 118.582 70.37 118.658C70.2897 118.738 70.1883 118.776 70.0658 118.776C69.9517 118.776 69.8545 118.738 69.7785 118.658C69.6982 118.582 69.6602 118.48 69.6602 118.354V112.793C69.6602 112.671 69.6982 112.569 69.7785 112.489C69.8545 112.413 69.9517 112.371 70.0658 112.371C70.1883 112.371 70.2897 112.413 70.37 112.489C70.446 112.569 70.4883 112.671 70.4883 112.793V114.974C70.6319 114.75 70.8348 114.559 71.0967 114.399C71.3544 114.243 71.6291 114.162 71.9248 114.162Z" fill="black"/>
    <path d="M79.186 118.354C79.186 118.48 79.1437 118.582 79.0677 118.658C79.0001 118.738 78.9029 118.776 78.7803 118.776C78.6663 118.776 78.5691 118.738 78.493 118.658C78.4128 118.582 78.3747 118.48 78.3747 118.354V114.619C78.3747 114.496 78.4128 114.395 78.493 114.314C78.5691 114.238 78.6663 114.196 78.7803 114.196C78.9029 114.196 79.0001 114.238 79.0677 114.314C79.1437 114.395 79.186 114.496 79.186 114.619V118.354ZM78.7803 113.621C78.6113 113.621 78.4846 113.596 78.4085 113.537C78.3409 113.482 78.3071 113.385 78.3071 113.25V113.114C78.3071 112.971 78.3452 112.869 78.4254 112.81C78.5015 112.755 78.6198 112.726 78.7803 112.726C78.9494 112.726 79.0677 112.76 79.1353 112.827C79.2029 112.886 79.2367 112.979 79.2367 113.114V113.25C79.2367 113.385 79.1944 113.482 79.1184 113.537C79.0508 113.596 78.9367 113.621 78.7803 113.621Z" fill="black"/>
    <path d="M86.4262 114.145C87.4614 114.145 87.9811 114.766 87.9811 116.004V118.354C87.9811 118.48 87.9388 118.582 87.8628 118.658C87.7825 118.738 87.6853 118.776 87.5755 118.776C87.4487 118.776 87.3473 118.738 87.2713 118.658C87.2037 118.582 87.1699 118.48 87.1699 118.354V116.021C87.1699 115.675 87.0896 115.404 86.9332 115.21C86.7727 115.007 86.5192 114.906 86.1727 114.906C85.9361 114.906 85.7206 114.957 85.5305 115.058C85.3488 115.159 85.2009 115.295 85.0911 115.464C84.9897 115.633 84.939 115.819 84.939 116.021V118.354C84.939 118.48 84.8967 118.582 84.8207 118.658C84.7404 118.738 84.639 118.776 84.5165 118.776C84.4024 118.776 84.3052 118.738 84.2291 118.658C84.1489 118.582 84.1108 118.48 84.1108 118.354V114.652C84.1108 114.543 84.1489 114.445 84.2291 114.365C84.3052 114.289 84.4024 114.247 84.5165 114.247C84.639 114.247 84.7404 114.289 84.8207 114.365C84.8967 114.445 84.939 114.543 84.939 114.652V114.957C85.0826 114.733 85.2939 114.543 85.5643 114.382C85.8347 114.226 86.122 114.145 86.4262 114.145Z" fill="black"/>
    <path d="M96.7483 114.179C96.8582 114.179 96.9554 114.221 97.0357 114.297C97.1117 114.378 97.154 114.479 97.154 114.602V118.404C97.154 118.878 97.0526 119.271 96.8498 119.587C96.6554 119.9 96.385 120.132 96.0385 120.28C95.7005 120.424 95.3202 120.5 94.9062 120.5C94.6696 120.5 94.3907 120.458 94.078 120.382C93.7738 120.301 93.5795 120.217 93.5034 120.128C93.3217 120.035 93.233 119.925 93.233 119.79C93.233 119.756 93.2415 119.71 93.2668 119.655C93.3217 119.507 93.4274 119.435 93.5879 119.435C93.6555 119.435 93.7316 119.452 93.8245 119.486C94.2851 119.663 94.6442 119.756 94.9062 119.756C95.3667 119.756 95.7216 119.642 95.9709 119.418C96.216 119.19 96.3427 118.886 96.3427 118.506V118.033C96.216 118.261 96.0089 118.455 95.7174 118.624C95.4343 118.78 95.1343 118.861 94.8217 118.861C94.4245 118.861 94.0611 118.759 93.7231 118.556C93.3936 118.354 93.1358 118.075 92.9457 117.711C92.764 117.352 92.6753 116.947 92.6753 116.495C92.6753 116.047 92.764 115.641 92.9457 115.278C93.1358 114.919 93.3936 114.644 93.7231 114.45C94.0485 114.247 94.4076 114.145 94.8048 114.145C95.1174 114.145 95.4132 114.221 95.6836 114.365C95.9625 114.5 96.1822 114.678 96.3427 114.889V114.602C96.3427 114.479 96.3765 114.378 96.4441 114.297C96.5202 114.221 96.6216 114.179 96.7483 114.179ZM94.9231 118.1C95.2019 118.1 95.4512 118.033 95.6667 117.897C95.8906 117.762 96.0639 117.572 96.1906 117.323C96.3132 117.078 96.3765 116.799 96.3765 116.495C96.3765 116.19 96.3132 115.92 96.1906 115.683C96.0639 115.438 95.8906 115.244 95.6667 115.109C95.4512 114.974 95.2019 114.906 94.9231 114.906C94.64 114.906 94.3865 114.974 94.1625 115.109C93.9471 115.244 93.7781 115.438 93.6555 115.683C93.5288 115.933 93.4696 116.203 93.4696 116.495C93.4696 116.799 93.5288 117.078 93.6555 117.323C93.7781 117.559 93.9471 117.754 94.1625 117.897C94.3865 118.033 94.64 118.1 94.9231 118.1Z" fill="black"/>
    <path d="M112.672 113.081C112.808 113.148 112.875 113.262 112.875 113.419C112.875 113.52 112.841 113.617 112.774 113.706C112.706 113.799 112.609 113.841 112.486 113.841C112.406 113.841 112.326 113.824 112.25 113.79C111.899 113.588 111.515 113.486 111.101 113.486C110.661 113.486 110.277 113.583 109.951 113.774C109.622 113.955 109.364 114.221 109.174 114.568C108.992 114.906 108.904 115.303 108.904 115.751C108.904 116.224 108.996 116.638 109.191 116.985C109.381 117.335 109.639 117.602 109.968 117.779C110.306 117.961 110.682 118.049 111.101 118.049C111.527 118.049 111.912 117.948 112.25 117.745C112.326 117.703 112.406 117.678 112.486 117.678C112.609 117.678 112.71 117.728 112.791 117.83C112.858 117.923 112.892 118.016 112.892 118.117C112.892 118.185 112.867 118.248 112.824 118.303C112.791 118.362 112.74 118.413 112.672 118.455C112.457 118.582 112.208 118.683 111.929 118.759C111.646 118.827 111.371 118.861 111.101 118.861C110.534 118.861 110.019 118.738 109.546 118.489C109.081 118.244 108.709 117.88 108.43 117.407C108.147 116.934 108.008 116.385 108.008 115.751C108.008 115.168 108.143 114.644 108.413 114.179C108.684 113.706 109.047 113.334 109.512 113.064C109.985 112.793 110.513 112.658 111.101 112.658C111.65 112.658 112.174 112.802 112.672 113.081Z" fill="black"/>
    <path d="M119.768 114.145C119.912 114.145 120.043 114.188 120.157 114.264C120.267 114.331 120.326 114.428 120.326 114.551C120.326 114.686 120.284 114.796 120.208 114.872C120.14 114.94 120.055 114.974 119.954 114.974C119.895 114.974 119.819 114.957 119.717 114.923C119.591 114.881 119.498 114.855 119.43 114.855C119.248 114.855 119.075 114.919 118.906 115.041C118.737 115.168 118.594 115.337 118.484 115.548C118.382 115.764 118.332 116.004 118.332 116.275V118.354C118.332 118.48 118.289 118.582 118.213 118.658C118.133 118.738 118.032 118.776 117.909 118.776C117.795 118.776 117.698 118.738 117.622 118.658C117.541 118.582 117.503 118.48 117.503 118.354V114.652C117.503 114.543 117.541 114.445 117.622 114.365C117.698 114.289 117.795 114.247 117.909 114.247C118.032 114.247 118.133 114.289 118.213 114.365C118.289 114.445 118.332 114.543 118.332 114.652V115.092C118.454 114.813 118.64 114.585 118.889 114.416C119.147 114.238 119.439 114.145 119.768 114.145Z" fill="black"/>
    <path d="M128.804 116.342C128.791 116.444 128.745 116.537 128.669 116.613C128.588 116.68 128.491 116.714 128.381 116.714H125.339C125.382 117.133 125.542 117.471 125.812 117.728C126.091 117.978 126.438 118.1 126.843 118.1C127.122 118.1 127.35 118.062 127.519 117.982C127.688 117.906 127.841 117.796 127.976 117.661C128.064 117.618 128.149 117.593 128.229 117.593C128.331 117.593 128.415 117.627 128.483 117.695C128.55 117.762 128.584 117.842 128.584 117.931C128.584 118.058 128.521 118.168 128.398 118.269C128.229 118.438 128.001 118.582 127.722 118.692C127.452 118.802 127.173 118.861 126.894 118.861C126.421 118.861 126.003 118.768 125.643 118.573C125.293 118.371 125.022 118.096 124.832 117.745C124.638 117.399 124.545 116.997 124.545 116.545C124.545 116.064 124.638 115.641 124.832 115.278C125.035 114.906 125.297 114.627 125.627 114.433C125.952 114.243 126.303 114.145 126.674 114.145C127.046 114.145 127.393 114.243 127.722 114.433C128.048 114.614 128.305 114.872 128.5 115.21C128.69 115.548 128.791 115.928 128.804 116.342ZM126.674 114.906C126.358 114.906 126.083 114.999 125.846 115.176C125.61 115.358 125.449 115.641 125.373 116.021H127.925V115.954C127.9 115.641 127.764 115.388 127.519 115.193C127.27 115.003 126.987 114.906 126.674 114.906Z" fill="black"/>
    <path d="M137.17 114.179C137.293 114.179 137.394 114.221 137.474 114.297C137.55 114.378 137.593 114.479 137.593 114.602V118.354C137.593 118.48 137.55 118.582 137.474 118.658C137.394 118.738 137.293 118.776 137.17 118.776C137.043 118.776 136.942 118.738 136.866 118.658C136.798 118.582 136.764 118.48 136.764 118.354V118.134C136.617 118.337 136.41 118.514 136.139 118.658C135.877 118.793 135.603 118.861 135.311 118.861C134.914 118.861 134.555 118.759 134.229 118.556C133.912 118.354 133.663 118.075 133.486 117.711C133.304 117.352 133.215 116.947 133.215 116.495C133.215 116.047 133.304 115.641 133.486 115.278C133.663 114.919 133.912 114.644 134.229 114.45C134.555 114.247 134.905 114.145 135.277 114.145C135.581 114.145 135.86 114.209 136.122 114.331C136.393 114.458 136.604 114.619 136.764 114.821V114.602C136.764 114.479 136.798 114.378 136.866 114.297C136.942 114.221 137.043 114.179 137.17 114.179ZM135.412 118.1C135.683 118.1 135.919 118.033 136.122 117.897C136.333 117.754 136.498 117.559 136.612 117.323C136.735 117.078 136.798 116.799 136.798 116.495C136.798 116.203 136.735 115.937 136.612 115.7C136.498 115.455 136.333 115.261 136.122 115.126C135.919 114.982 135.683 114.906 135.412 114.906C135.129 114.906 134.88 114.974 134.669 115.109C134.466 115.244 134.301 115.438 134.179 115.683C134.065 115.92 134.01 116.19 134.01 116.495C134.01 116.799 134.065 117.078 134.179 117.323C134.301 117.559 134.466 117.754 134.669 117.897C134.88 118.033 135.129 118.1 135.412 118.1Z" fill="black"/>
    <path d="M143.771 115.041V117.627C143.771 117.923 143.898 118.066 144.16 118.066C144.202 118.066 144.261 118.058 144.329 118.032C144.396 118.011 144.451 117.999 144.498 117.999C144.565 117.999 144.62 118.032 144.667 118.1C144.722 118.159 144.751 118.235 144.751 118.337C144.751 118.463 144.684 118.569 144.548 118.658C144.413 118.738 144.253 118.776 144.075 118.776C143.893 118.776 143.72 118.759 143.551 118.725C143.391 118.683 143.251 118.582 143.129 118.421C143.002 118.252 142.943 117.999 142.943 117.661V115.041H142.453C142.339 115.041 142.241 115.007 142.165 114.94C142.098 114.872 142.064 114.783 142.064 114.669C142.064 114.559 142.098 114.466 142.165 114.399C142.241 114.331 142.339 114.297 142.453 114.297H142.943V113.571C142.943 113.461 142.981 113.364 143.061 113.283C143.137 113.195 143.239 113.148 143.365 113.148C143.475 113.148 143.572 113.195 143.653 113.283C143.729 113.364 143.771 113.461 143.771 113.571V114.297H144.498C144.599 114.297 144.684 114.34 144.751 114.416C144.827 114.483 144.869 114.568 144.869 114.669C144.869 114.783 144.827 114.872 144.751 114.94C144.684 115.007 144.599 115.041 144.498 115.041H143.771Z" fill="black"/>
    <path d="M150.341 118.354C150.341 118.48 150.299 118.582 150.223 118.658C150.155 118.738 150.058 118.776 149.936 118.776C149.822 118.776 149.724 118.738 149.648 118.658C149.568 118.582 149.53 118.48 149.53 118.354V114.619C149.53 114.496 149.568 114.395 149.648 114.314C149.724 114.238 149.822 114.196 149.936 114.196C150.058 114.196 150.155 114.238 150.223 114.314C150.299 114.395 150.341 114.496 150.341 114.619V118.354ZM149.936 113.621C149.767 113.621 149.64 113.596 149.564 113.537C149.496 113.482 149.462 113.385 149.462 113.25V113.114C149.462 112.971 149.5 112.869 149.581 112.81C149.657 112.755 149.775 112.726 149.936 112.726C150.105 112.726 150.223 112.76 150.291 112.827C150.358 112.886 150.392 112.979 150.392 113.114V113.25C150.392 113.385 150.35 113.482 150.274 113.537C150.206 113.596 150.092 113.621 149.936 113.621Z" fill="black"/>
    <path d="M158.731 114.196C158.84 114.196 158.933 114.238 159.001 114.314C159.077 114.382 159.119 114.466 159.119 114.568C159.119 114.614 159.102 114.682 159.069 114.771L157.412 118.523C157.379 118.59 157.328 118.649 157.26 118.692C157.201 118.738 157.133 118.768 157.057 118.776C156.964 118.785 156.88 118.772 156.804 118.725C156.724 118.683 156.669 118.616 156.635 118.523L154.979 114.771C154.953 114.695 154.945 114.627 154.945 114.568C154.945 114.466 154.979 114.382 155.046 114.314C155.122 114.238 155.224 114.196 155.35 114.196C155.439 114.196 155.519 114.221 155.587 114.264C155.655 114.31 155.71 114.378 155.756 114.466L157.057 117.492L158.359 114.466C158.435 114.289 158.562 114.196 158.731 114.196Z" fill="black"/>
    <path d="M167.734 116.342C167.721 116.444 167.675 116.537 167.599 116.613C167.519 116.68 167.421 116.714 167.312 116.714H164.269C164.312 117.133 164.472 117.471 164.743 117.728C165.022 117.978 165.368 118.1 165.774 118.1C166.052 118.1 166.281 118.062 166.45 117.982C166.619 117.906 166.771 117.796 166.906 117.661C166.995 117.618 167.079 117.593 167.159 117.593C167.261 117.593 167.345 117.627 167.413 117.695C167.481 117.762 167.514 117.842 167.514 117.931C167.514 118.058 167.451 118.168 167.328 118.269C167.159 118.438 166.931 118.582 166.652 118.692C166.382 118.802 166.103 118.861 165.824 118.861C165.351 118.861 164.933 118.768 164.574 118.573C164.223 118.371 163.953 118.096 163.762 117.745C163.568 117.399 163.475 116.997 163.475 116.545C163.475 116.064 163.568 115.641 163.762 115.278C163.965 114.906 164.227 114.627 164.557 114.433C164.882 114.243 165.233 114.145 165.605 114.145C165.976 114.145 166.323 114.243 166.652 114.433C166.978 114.614 167.235 114.872 167.43 115.21C167.62 115.548 167.721 115.928 167.734 116.342ZM165.605 114.906C165.288 114.906 165.013 114.999 164.776 115.176C164.54 115.358 164.379 115.641 164.303 116.021H166.855V115.954C166.83 115.641 166.695 115.388 166.45 115.193C166.2 115.003 165.917 114.906 165.605 114.906Z" fill="black"/>
    <path d="M179.515 118.354C179.515 118.481 179.468 118.582 179.38 118.658C179.299 118.738 179.202 118.776 179.092 118.776C178.957 118.776 178.847 118.738 178.771 118.658C178.691 118.582 178.653 118.481 178.653 118.354V113.131C178.653 113.022 178.691 112.924 178.771 112.844C178.86 112.768 178.965 112.726 179.092 112.726C179.202 112.726 179.299 112.768 179.38 112.844C179.468 112.924 179.515 113.022 179.515 113.131V118.354Z" fill="black"/>
    <path d="M186.898 114.145C187.933 114.145 188.453 114.766 188.453 116.004V118.354C188.453 118.48 188.411 118.582 188.334 118.658C188.254 118.738 188.157 118.776 188.047 118.776C187.92 118.776 187.819 118.738 187.743 118.658C187.675 118.582 187.642 118.48 187.642 118.354V116.021C187.642 115.675 187.561 115.404 187.405 115.21C187.244 115.007 186.991 114.906 186.644 114.906C186.408 114.906 186.192 114.957 186.002 115.058C185.82 115.159 185.673 115.295 185.563 115.464C185.461 115.633 185.411 115.819 185.411 116.021V118.354C185.411 118.48 185.368 118.582 185.292 118.658C185.212 118.738 185.111 118.776 184.988 118.776C184.874 118.776 184.777 118.738 184.701 118.658C184.621 118.582 184.583 118.48 184.583 118.354V114.652C184.583 114.543 184.621 114.445 184.701 114.365C184.777 114.289 184.874 114.247 184.988 114.247C185.111 114.247 185.212 114.289 185.292 114.365C185.368 114.445 185.411 114.543 185.411 114.652V114.957C185.554 114.733 185.766 114.543 186.036 114.382C186.306 114.226 186.594 114.145 186.898 114.145Z" fill="black"/>
    <path d="M193.164 118.066C193.105 117.99 193.08 117.91 193.08 117.83C193.08 117.72 193.139 117.623 193.265 117.542C193.32 117.5 193.388 117.475 193.468 117.475C193.57 117.475 193.663 117.521 193.756 117.61C193.925 117.804 194.102 117.948 194.296 118.049C194.499 118.151 194.74 118.202 195.023 118.202C195.247 118.193 195.437 118.142 195.598 118.049C195.767 117.948 195.851 117.792 195.851 117.576C195.851 117.386 195.767 117.238 195.598 117.137C195.429 117.035 195.179 116.942 194.854 116.849C194.525 116.761 194.254 116.672 194.043 116.579C193.827 116.478 193.646 116.338 193.502 116.157C193.354 115.979 193.282 115.742 193.282 115.447C193.282 115.189 193.354 114.965 193.502 114.771C193.646 114.568 193.844 114.416 194.094 114.314C194.339 114.205 194.605 114.145 194.888 114.145C195.167 114.145 195.446 114.196 195.716 114.297C195.995 114.399 196.223 114.559 196.392 114.771C196.46 114.851 196.494 114.935 196.494 115.024C196.494 115.117 196.447 115.206 196.358 115.295C196.299 115.341 196.227 115.362 196.139 115.362C196.037 115.362 195.953 115.328 195.885 115.261C195.771 115.126 195.623 115.024 195.446 114.957C195.264 114.881 195.065 114.838 194.854 114.838C194.639 114.838 194.453 114.885 194.296 114.974C194.149 115.054 194.077 115.202 194.077 115.413C194.077 115.616 194.161 115.768 194.33 115.869C194.499 115.971 194.761 116.068 195.125 116.157C195.429 116.237 195.682 116.321 195.885 116.41C196.088 116.503 196.257 116.642 196.392 116.833C196.527 117.014 196.595 117.251 196.595 117.542C196.595 117.813 196.515 118.049 196.358 118.252C196.21 118.447 196.008 118.599 195.75 118.709C195.501 118.81 195.234 118.861 194.956 118.861C194.592 118.861 194.254 118.797 193.942 118.675C193.637 118.552 193.375 118.349 193.164 118.066Z" fill="black"/>
    <path d="M202.061 118.354C202.061 118.481 202.019 118.582 201.943 118.658C201.875 118.738 201.778 118.776 201.655 118.776C201.541 118.776 201.444 118.738 201.368 118.658C201.288 118.582 201.25 118.481 201.25 118.354V114.619C201.25 114.496 201.288 114.395 201.368 114.314C201.444 114.238 201.541 114.196 201.655 114.196C201.778 114.196 201.875 114.238 201.943 114.314C202.019 114.395 202.061 114.496 202.061 114.619V118.354ZM201.655 113.622C201.486 113.622 201.36 113.596 201.284 113.537C201.216 113.482 201.182 113.385 201.182 113.25V113.115C201.182 112.971 201.22 112.869 201.3 112.81C201.376 112.755 201.495 112.726 201.655 112.726C201.824 112.726 201.943 112.76 202.01 112.827C202.078 112.886 202.112 112.979 202.112 113.115V113.25C202.112 113.385 202.069 113.482 201.993 113.537C201.926 113.596 201.812 113.622 201.655 113.622Z" fill="black"/>
    <path d="M210.789 114.179C210.899 114.179 210.996 114.221 211.076 114.297C211.152 114.378 211.194 114.479 211.194 114.602V118.404C211.194 118.878 211.093 119.271 210.89 119.587C210.696 119.9 210.426 120.132 210.079 120.28C209.741 120.424 209.361 120.5 208.947 120.5C208.71 120.5 208.431 120.458 208.119 120.382C207.814 120.301 207.62 120.217 207.544 120.128C207.362 120.035 207.274 119.925 207.274 119.79C207.274 119.756 207.282 119.71 207.307 119.655C207.362 119.507 207.468 119.435 207.628 119.435C207.696 119.435 207.772 119.452 207.865 119.486C208.326 119.663 208.685 119.756 208.947 119.756C209.407 119.756 209.762 119.642 210.011 119.418C210.257 119.19 210.383 118.886 210.383 118.506V118.033C210.257 118.261 210.049 118.455 209.758 118.624C209.475 118.78 209.175 118.861 208.862 118.861C208.465 118.861 208.102 118.759 207.764 118.556C207.434 118.354 207.176 118.075 206.986 117.711C206.805 117.352 206.716 116.947 206.716 116.495C206.716 116.047 206.805 115.641 206.986 115.278C207.176 114.919 207.434 114.644 207.764 114.45C208.089 114.247 208.448 114.145 208.845 114.145C209.158 114.145 209.454 114.221 209.724 114.365C210.003 114.5 210.223 114.678 210.383 114.889V114.602C210.383 114.479 210.417 114.378 210.485 114.297C210.561 114.221 210.662 114.179 210.789 114.179ZM208.964 118.1C209.242 118.1 209.492 118.033 209.707 117.897C209.931 117.762 210.104 117.572 210.231 117.323C210.354 117.078 210.417 116.799 210.417 116.495C210.417 116.19 210.354 115.92 210.231 115.683C210.104 115.438 209.931 115.244 209.707 115.109C209.492 114.974 209.242 114.906 208.964 114.906C208.681 114.906 208.427 114.974 208.203 115.109C207.988 115.244 207.819 115.438 207.696 115.683C207.569 115.933 207.51 116.203 207.51 116.495C207.51 116.799 207.569 117.078 207.696 117.323C207.819 117.559 207.988 117.754 208.203 117.897C208.427 118.033 208.681 118.1 208.964 118.1Z" fill="black"/>
    <path d="M218.415 114.162C219.429 114.162 219.936 114.796 219.936 116.055V118.354C219.936 118.48 219.893 118.582 219.817 118.658C219.737 118.738 219.64 118.776 219.53 118.776C219.403 118.776 219.302 118.738 219.226 118.658C219.146 118.582 219.108 118.48 219.108 118.354V116.055C219.108 115.303 218.791 114.923 218.161 114.923C217.823 114.923 217.54 115.037 217.316 115.261C217.088 115.476 216.978 115.743 216.978 116.055V118.354C216.978 118.48 216.936 118.582 216.86 118.658C216.779 118.738 216.678 118.776 216.556 118.776C216.441 118.776 216.344 118.738 216.268 118.658C216.188 118.582 216.15 118.48 216.15 118.354V112.793C216.15 112.671 216.188 112.569 216.268 112.489C216.344 112.413 216.441 112.371 216.556 112.371C216.678 112.371 216.779 112.413 216.86 112.489C216.936 112.569 216.978 112.671 216.978 112.793V114.974C217.122 114.75 217.324 114.559 217.586 114.399C217.844 114.243 218.119 114.162 218.415 114.162Z" fill="black"/>
    <path d="M226.132 115.041V117.627C226.132 117.923 226.259 118.066 226.52 118.066C226.563 118.066 226.622 118.058 226.689 118.033C226.757 118.011 226.812 117.999 226.858 117.999C226.926 117.999 226.981 118.033 227.028 118.1C227.082 118.159 227.112 118.235 227.112 118.337C227.112 118.464 227.044 118.569 226.909 118.658C226.774 118.738 226.613 118.776 226.436 118.776C226.254 118.776 226.081 118.759 225.912 118.726C225.752 118.683 225.612 118.582 225.49 118.421C225.363 118.252 225.304 117.999 225.304 117.661V115.041H224.814C224.699 115.041 224.602 115.007 224.526 114.94C224.459 114.872 224.425 114.783 224.425 114.669C224.425 114.56 224.459 114.467 224.526 114.399C224.602 114.331 224.699 114.298 224.814 114.298H225.304V113.571C225.304 113.461 225.342 113.364 225.422 113.284C225.498 113.195 225.599 113.148 225.726 113.148C225.836 113.148 225.933 113.195 226.013 113.284C226.09 113.364 226.132 113.461 226.132 113.571V114.298H226.858C226.96 114.298 227.044 114.34 227.112 114.416C227.188 114.483 227.23 114.568 227.23 114.669C227.23 114.783 227.188 114.872 227.112 114.94C227.044 115.007 226.96 115.041 226.858 115.041H226.132Z" fill="black"/>
    <path d="M231.671 118.066C231.612 117.99 231.586 117.91 231.586 117.83C231.586 117.72 231.646 117.623 231.772 117.542C231.827 117.5 231.895 117.475 231.975 117.475C232.077 117.475 232.169 117.521 232.262 117.61C232.431 117.804 232.609 117.948 232.803 118.049C233.006 118.151 233.247 118.202 233.53 118.202C233.754 118.193 233.944 118.142 234.105 118.049C234.274 117.948 234.358 117.792 234.358 117.576C234.358 117.386 234.274 117.238 234.105 117.137C233.936 117.035 233.686 116.942 233.361 116.849C233.031 116.761 232.761 116.672 232.55 116.579C232.334 116.478 232.153 116.338 232.009 116.157C231.861 115.979 231.789 115.742 231.789 115.447C231.789 115.189 231.861 114.965 232.009 114.771C232.153 114.568 232.351 114.416 232.6 114.314C232.846 114.205 233.112 114.145 233.395 114.145C233.674 114.145 233.953 114.196 234.223 114.297C234.502 114.399 234.73 114.559 234.899 114.771C234.967 114.851 235 114.935 235 115.024C235 115.117 234.954 115.206 234.865 115.295C234.806 115.341 234.734 115.362 234.645 115.362C234.544 115.362 234.46 115.328 234.392 115.261C234.278 115.126 234.13 115.024 233.953 114.957C233.771 114.881 233.572 114.838 233.361 114.838C233.146 114.838 232.96 114.885 232.803 114.974C232.655 115.054 232.584 115.202 232.584 115.413C232.584 115.616 232.668 115.768 232.837 115.869C233.006 115.971 233.268 116.068 233.631 116.157C233.936 116.237 234.189 116.321 234.392 116.41C234.595 116.503 234.764 116.642 234.899 116.833C235.034 117.014 235.102 117.251 235.102 117.542C235.102 117.813 235.021 118.049 234.865 118.252C234.717 118.447 234.514 118.599 234.257 118.709C234.007 118.81 233.741 118.861 233.462 118.861C233.099 118.861 232.761 118.797 232.448 118.675C232.144 118.552 231.882 118.349 231.671 118.066Z" fill="black"/>
    </svg>
    