<svg width="161" height="59" viewBox="0 0 161 59" fill="none" xmlns="http://www.w3.org/2000/svg">
    <path d="M11.1257 16.6708C9.95774 16.6708 8.95514 17.1028 8.11786 17.9614C7.27792 18.8227 6.85928 19.8599 6.85928 21.0758C6.85928 22.3077 7.27792 23.3557 8.11786 24.2223C8.95514 25.0836 9.95774 25.5129 11.1257 25.5129C11.6856 25.5129 12.2162 25.4462 12.7149 25.3102C13.2188 25.1689 13.5895 25.0276 13.8241 24.8836L14.1335 24.6703L16.2346 28.9686C16.0693 29.0913 15.8427 29.2406 15.552 29.4166C15.2587 29.5872 14.5948 29.8219 13.5575 30.1205C12.5176 30.4245 11.4056 30.5792 10.2191 30.5792C7.58723 30.5792 5.27272 29.6566 3.27553 27.806C1.28366 25.9502 0.289062 23.729 0.289062 21.1398C0.289062 18.532 1.28366 16.2922 3.27553 14.4203C5.27272 12.5431 7.58723 11.6045 10.2191 11.6045C11.4056 11.6045 12.5016 11.7431 13.5042 12.0205C14.5068 12.2978 15.216 12.5804 15.6373 12.8631L16.2346 13.279L14.1335 17.5134C13.3655 16.9535 12.3629 16.6708 11.1257 16.6708Z" fill="black"/>
    <path d="M15.4648 30.0565V12.1271H21.6511V14.7083H21.7151C21.7631 14.6176 21.8377 14.503 21.9391 14.367C22.0457 14.2256 22.2724 13.9803 22.6217 13.631C22.9763 13.2844 23.3496 12.9697 23.7416 12.6924C24.1389 12.4098 24.6509 12.1565 25.2775 11.9351C25.9095 11.7165 26.5521 11.6045 27.208 11.6045C27.8827 11.6045 28.544 11.6978 29.1919 11.8818C29.8452 12.0685 30.3252 12.2524 30.6318 12.4364L31.1224 12.7244L28.5306 17.9614C27.7627 17.3081 26.6907 16.9801 25.3202 16.9801C24.5736 16.9801 23.9283 17.1454 23.3896 17.4708C22.8563 17.7987 22.4777 18.196 22.259 18.6653C22.0377 19.1293 21.8804 19.5239 21.7897 19.8493C21.6964 20.1772 21.6511 20.4332 21.6511 20.6172V30.0565H15.4648Z" fill="black"/>
    <path d="M47.7146 21.9504H34.7128C34.7128 23.209 35.1208 24.1423 35.9394 24.7449C36.7553 25.3502 37.6406 25.6515 38.5952 25.6515C39.5978 25.6515 40.3898 25.5209 40.9737 25.2569C41.555 24.9876 42.2216 24.4543 42.9682 23.657L47.4373 25.8968C45.5734 29.0193 42.4723 30.5792 38.1366 30.5792C35.4328 30.5792 33.1156 29.6566 31.1824 27.806C29.2465 25.9502 28.2812 23.7183 28.2812 21.1078C28.2812 18.5 29.2465 16.2628 31.1824 14.399C33.1156 12.5378 35.4328 11.6045 38.1366 11.6045C40.9791 11.6045 43.2936 12.4258 45.0801 14.0683C46.864 15.7109 47.7573 18.0574 47.7573 21.1078C47.7573 21.5291 47.7413 21.8091 47.7146 21.9504ZM34.8941 18.5267H41.7097C41.5657 17.5961 41.1977 16.8815 40.6004 16.3828C40.0084 15.8789 39.2485 15.6255 38.3179 15.6255C37.294 15.6255 36.4754 15.8922 35.8647 16.4255C35.2594 16.9588 34.9368 17.6601 34.8941 18.5267Z" fill="black"/>
    <path d="M48.5875 27.838C46.9076 26.0115 46.0703 23.7716 46.0703 21.1185C46.0703 18.46 46.9076 16.2095 48.5875 14.367C50.2647 12.5271 52.3979 11.6045 54.987 11.6045C57.3602 11.6045 59.3201 12.3484 60.864 13.8337V12.1271H67.0502V30.0565H60.928V28.03H60.864C59.3201 29.7312 57.3602 30.5792 54.987 30.5792C52.3979 30.5792 50.2647 29.6672 48.5875 27.838ZM53.8458 18.068C53.0405 18.8573 52.6405 19.8706 52.6405 21.1078C52.6405 22.3451 53.0245 23.3557 53.7925 24.137C54.5657 24.9129 55.5843 25.2995 56.8429 25.2995C58.0508 25.2995 59.0454 24.9049 59.8294 24.1156C60.6107 23.321 61.0026 22.3184 61.0026 21.1078C61.0026 19.8706 60.6 18.8573 59.7974 18.068C58.9921 17.2788 58.0082 16.8841 56.8429 16.8841C55.6537 16.8841 54.6564 17.2788 53.8458 18.068Z" fill="black"/>
    <path d="M69.002 12.1271V5.4502H75.1882V12.1271H78.964V16.8414H75.1882V22.537C75.1882 24.1956 75.6522 25.0222 76.5855 25.0222C76.8201 25.0222 77.0654 24.9768 77.3214 24.8835C77.5774 24.7929 77.7747 24.6995 77.9187 24.6062L78.1214 24.4675L79.6573 29.4592C78.3347 30.2058 76.8201 30.5791 75.1136 30.5791C73.9536 30.5791 72.9537 30.3765 72.1164 29.9712C71.2765 29.5605 70.6392 29.0112 70.2072 28.3286C69.7726 27.6407 69.4633 26.918 69.2793 26.1634C69.0926 25.4035 69.002 24.5929 69.002 23.7316V16.8414H66.4102V12.1271H69.002Z" fill="black"/>
    <path d="M79.689 27.838C78.0092 26.0115 77.1719 23.7716 77.1719 21.1185C77.1719 18.46 78.0092 16.2095 79.689 14.367C81.3663 12.5271 83.4994 11.6045 86.0886 11.6045C88.4618 11.6045 90.4216 12.3484 91.9655 13.8337V12.1271H98.1518V30.0565H92.0295V28.03H91.9655C90.4216 29.7312 88.4618 30.5792 86.0886 30.5792C83.4994 30.5792 81.3663 29.6672 79.689 27.838ZM84.9473 18.068C84.1421 18.8573 83.7421 19.8706 83.7421 21.1078C83.7421 22.3451 84.1261 23.3557 84.894 24.137C85.6673 24.9129 86.6859 25.2995 87.9445 25.2995C89.1524 25.2995 90.147 24.9049 90.9309 24.1156C91.7122 23.321 92.1042 22.3184 92.1042 21.1078C92.1042 19.8706 91.7016 18.8573 90.8989 18.068C90.0937 17.2788 89.1097 16.8841 87.9445 16.8841C86.7552 16.8841 85.758 17.2788 84.9473 18.068Z" fill="black"/>
    <path d="M99.0586 30.0565V-0.00012207H105.245V30.0565H99.0586Z" fill="black"/>
    <path d="M119.741 12.1271H126.877L112.787 39.1439H105.662L111.848 27.262L103.348 12.1271H110.483L115.485 21.3211L119.741 12.1271Z" fill="black"/>
    <path d="M132.775 11.6045C133.804 11.6045 134.817 11.7218 135.815 11.9565C136.817 12.1858 137.564 12.4151 138.055 12.6498L138.79 13.0017L136.764 17.0548C135.361 16.3082 134.033 15.9349 132.775 15.9349C132.076 15.9349 131.583 16.0149 131.292 16.1695C130.999 16.3188 130.855 16.6041 130.855 17.0228C130.855 17.1161 130.866 17.2094 130.887 17.3001C130.914 17.3934 130.962 17.4814 131.026 17.5667C131.095 17.6467 131.159 17.7134 131.218 17.7694C131.282 17.8281 131.38 17.8921 131.516 17.9614C131.658 18.0334 131.767 18.0867 131.847 18.1214C131.932 18.1587 132.066 18.212 132.252 18.2814C132.436 18.3454 132.575 18.396 132.668 18.4307C132.767 18.468 132.927 18.5213 133.148 18.5907C133.367 18.6627 133.535 18.708 133.649 18.7293C134.375 18.9426 135.004 19.1773 135.537 19.4333C136.076 19.6893 136.641 20.0386 137.233 20.4785C137.831 20.9212 138.292 21.4785 138.62 22.1531C138.945 22.8304 139.11 23.601 139.11 24.4676C139.11 28.542 136.276 30.5792 130.61 30.5792C129.33 30.5792 128.114 30.3819 126.962 29.9925C125.81 29.5952 124.973 29.1979 124.455 28.798L123.688 28.1687L126.205 23.945C126.397 24.1023 126.642 24.2943 126.941 24.5209C127.245 24.7422 127.794 25.0436 128.583 25.4275C129.378 25.8115 130.066 26.0035 130.642 26.0035C131.927 26.0035 132.572 25.5742 132.572 24.7129C132.572 24.3156 132.407 24.0063 132.082 23.785C131.754 23.5663 131.199 23.3157 130.418 23.0384C129.634 22.7557 129.023 22.4944 128.583 22.2598C127.466 21.6785 126.581 21.0198 125.927 20.2866C125.271 19.5559 124.946 18.58 124.946 17.3641C124.946 15.5509 125.65 14.1403 127.058 13.1297C128.471 12.1138 130.378 11.6045 132.775 11.6045Z" fill="black"/>
    <path d="M139.484 2.13309C140.209 1.40781 141.073 1.04517 142.075 1.04517C143.078 1.04517 143.937 1.40781 144.656 2.13309C145.382 2.85304 145.744 3.71165 145.744 4.71424C145.744 5.71684 145.382 6.58078 144.656 7.30606C143.937 8.02601 143.078 8.38332 142.075 8.38332C141.073 8.38332 140.209 8.02601 139.484 7.30606C138.764 6.58078 138.406 5.71684 138.406 4.71424C138.406 3.71165 138.764 2.85304 139.484 2.13309ZM138.897 12.1271V30.0565H145.083V12.1271H138.897Z" fill="black"/>
    <path d="M153.955 11.6045C154.984 11.6045 155.997 11.7218 156.994 11.9565C157.997 12.1858 158.744 12.4151 159.234 12.6498L159.97 13.0017L157.944 17.0548C156.541 16.3082 155.213 15.9349 153.955 15.9349C153.256 15.9349 152.763 16.0149 152.472 16.1695C152.179 16.3188 152.035 16.6041 152.035 17.0228C152.035 17.1161 152.045 17.2094 152.067 17.3001C152.093 17.3934 152.141 17.4814 152.205 17.5667C152.275 17.6467 152.339 17.7134 152.397 17.7694C152.461 17.8281 152.56 17.8921 152.696 17.9614C152.837 18.0334 152.947 18.0867 153.027 18.1214C153.112 18.1587 153.245 18.212 153.432 18.2814C153.616 18.3454 153.755 18.396 153.848 18.4307C153.947 18.468 154.107 18.5213 154.328 18.5907C154.547 18.6627 154.715 18.708 154.829 18.7293C155.554 18.9426 156.184 19.1773 156.717 19.4333C157.256 19.6893 157.821 20.0386 158.413 20.4785C159.01 20.9212 159.472 21.4785 159.8 22.1531C160.125 22.8304 160.29 23.601 160.29 24.4676C160.29 28.542 157.456 30.5792 151.789 30.5792C150.509 30.5792 149.294 30.3819 148.142 29.9925C146.99 29.5952 146.152 29.1979 145.635 28.798L144.867 28.1687L147.384 23.945C147.576 24.1023 147.822 24.2943 148.12 24.5209C148.424 24.7422 148.974 25.0436 149.763 25.4275C150.557 25.8115 151.245 26.0035 151.821 26.0035C153.107 26.0035 153.752 25.5742 153.752 24.7129C153.752 24.3156 153.587 24.0063 153.261 23.785C152.933 23.5663 152.379 23.3157 151.597 23.0384C150.813 22.7557 150.203 22.4944 149.763 22.2598C148.646 21.6785 147.76 21.0198 147.107 20.2866C146.451 19.5559 146.126 18.58 146.126 17.3641C146.126 15.5509 146.83 14.1403 148.238 13.1297C149.651 12.1138 151.557 11.6045 153.955 11.6045Z" fill="black"/>
    <path d="M42.2436 39.7625C43.2729 39.7625 44.2862 39.8798 45.2834 40.1144C46.286 40.3437 47.0326 40.5731 47.5233 40.8077L48.2592 41.1597L46.2327 45.2127C44.8301 44.4661 43.5022 44.0928 42.2436 44.0928C41.545 44.0928 41.0517 44.1728 40.7611 44.3275C40.4678 44.4768 40.3238 44.7621 40.3238 45.1807C40.3238 45.2741 40.3344 45.3674 40.3558 45.4581C40.3824 45.5514 40.4304 45.6394 40.4944 45.7247C40.5637 45.8047 40.6277 45.8714 40.6864 45.9274C40.7504 45.986 40.8491 46.05 40.985 46.1193C41.1264 46.1913 41.2357 46.2447 41.3157 46.2793C41.401 46.3167 41.5343 46.37 41.721 46.4393C41.905 46.5033 42.0436 46.554 42.137 46.5886C42.2356 46.626 42.3956 46.6793 42.6169 46.7486C42.8356 46.8206 43.0036 46.866 43.1182 46.8873C43.8435 47.1006 44.4728 47.3353 45.0061 47.5912C45.5447 47.8472 46.11 48.1965 46.702 48.6365C47.2993 49.0791 47.7606 49.6364 48.0886 50.3111C48.4139 50.9883 48.5792 51.759 48.5792 52.6256C48.5792 56.6999 45.7447 58.7371 40.0784 58.7371C38.7985 58.7371 37.5826 58.5398 36.4307 58.1505C35.2788 57.7532 34.4415 57.3559 33.9242 56.9559L33.1562 56.3266L35.6734 52.1029C35.8654 52.2603 36.1107 52.4522 36.4094 52.6789C36.7133 52.9002 37.2626 53.2015 38.0519 53.5855C38.8465 53.9695 39.5345 54.1615 40.1104 54.1615C41.3957 54.1615 42.041 53.7321 42.041 52.8709C42.041 52.4736 41.8757 52.1643 41.5503 51.9429C41.2224 51.7243 40.6677 51.4736 39.8865 51.1963C39.1025 50.9137 38.4919 50.6524 38.0519 50.4177C36.9347 49.8364 36.0494 49.1778 35.3961 48.4445C34.7401 47.7139 34.4148 46.738 34.4148 45.5221C34.4148 43.7088 35.1188 42.2983 36.5267 41.2877C37.9399 40.2717 39.8465 39.7625 42.2436 39.7625Z" fill="black"/>
    <path d="M49.4121 40.285V33.6082H55.5984V40.285H59.3741V44.9994H55.5984V50.695C55.5984 52.3535 56.0623 53.1801 56.9956 53.1801C57.2303 53.1801 57.4756 53.1348 57.7316 53.0415C57.9876 52.9508 58.1849 52.8575 58.3289 52.7642L58.5315 52.6255L60.0674 57.6172C58.7448 58.3638 57.2303 58.7371 55.5237 58.7371C54.3638 58.7371 53.3639 58.5344 52.5266 58.1291C51.6866 57.7185 51.0494 57.1692 50.6174 56.4866C50.1827 55.7986 49.8734 55.076 49.6895 54.3214C49.5028 53.5614 49.4121 52.7508 49.4121 51.8896V44.9994H46.8203V40.285H49.4121Z" fill="black"/>
    <path d="M64.7214 40.285V48.8071C64.7214 50.5857 64.9881 51.8469 65.5213 52.5935C66.06 53.3348 66.9719 53.7028 68.2518 53.7028C69.5317 53.7028 70.4383 53.3348 70.9716 52.5935C71.5103 51.8469 71.7823 50.5857 71.7823 48.8071V40.285H77.9685V50.311C77.9685 53.2975 77.1926 55.4493 75.6433 56.7639C74.0914 58.0811 71.6276 58.7371 68.2518 58.7371C64.8734 58.7371 62.4096 58.0811 60.8603 56.7639C59.3084 55.4493 58.5352 53.2975 58.5352 50.311V40.285H64.7214Z" fill="black"/>
    <path d="M79.7398 55.9959C78.0599 54.1694 77.2227 51.9295 77.2227 49.2764C77.2227 46.6179 78.0599 44.3674 79.7398 42.5248C81.417 40.685 83.5502 39.7624 86.1394 39.7624C88.5126 39.7624 90.4724 40.5063 92.0163 41.9915V28.1578H98.2026V58.2144H92.0803V56.1879H92.0163C90.4724 57.8891 88.5126 58.737 86.1394 58.737C83.5502 58.737 81.417 57.8251 79.7398 55.9959ZM84.9981 46.2259C84.1928 47.0152 83.7929 48.0285 83.7929 49.2657C83.7929 50.503 84.1768 51.5136 84.9448 52.2948C85.7181 53.0708 86.7367 53.4574 87.9953 53.4574C89.2032 53.4574 90.1978 53.0628 90.9817 52.2735C91.763 51.4789 92.155 50.4763 92.155 49.2657C92.155 48.0285 91.7523 47.0152 90.9497 46.2259C90.1444 45.4366 89.1605 45.042 87.9953 45.042C86.806 45.042 85.8087 45.4366 84.9981 46.2259Z" fill="black"/>
    <path d="M99.6944 30.291C100.42 29.5658 101.284 29.2031 102.286 29.2031C103.289 29.2031 104.147 29.5658 104.867 30.291C105.593 31.011 105.955 31.8696 105.955 32.8722C105.955 33.8748 105.593 34.7387 104.867 35.464C104.147 36.184 103.289 36.5413 102.286 36.5413C101.284 36.5413 100.42 36.184 99.6944 35.464C98.9745 34.7387 98.6172 33.8748 98.6172 32.8722C98.6172 31.8696 98.9745 31.011 99.6944 30.291ZM99.1078 40.285V58.2144H105.294V40.285H99.1078Z" fill="black"/>
    <path d="M108.065 56.0813C106.073 54.3108 105.078 52.0389 105.078 49.2658C105.078 46.4927 106.115 44.2181 108.193 42.4396C110.267 40.6557 112.832 39.7625 115.883 39.7625C118.891 39.7625 121.424 40.6584 123.488 42.4503C125.549 44.2421 126.581 46.514 126.581 49.2658C126.581 52.0176 125.57 54.2868 123.552 56.0707C121.538 57.8492 118.981 58.7371 115.883 58.7371C112.667 58.7371 110.062 57.8519 108.065 56.0813ZM112.854 46.226C112.048 47.0153 111.648 48.0285 111.648 49.2658C111.648 50.503 112.032 51.5136 112.8 52.2949C113.574 53.0709 114.592 53.4575 115.851 53.4575C117.059 53.4575 118.053 53.0629 118.837 52.2736C119.618 51.479 120.01 50.4764 120.01 49.2658C120.01 48.0285 119.608 47.0153 118.805 46.226C118 45.4367 117.016 45.0421 115.851 45.0421C114.661 45.0421 113.664 45.4367 112.854 46.226Z" fill="black"/>
    </svg>
    