<svg width="143" height="56" viewBox="0 0 143 56" fill="none" xmlns="http://www.w3.org/2000/svg">
<g id="Other agencies">
<path d="M33.2028 25.4421C31.2988 25.4421 29.5761 25.1247 28.0348 24.4901C26.4935 23.8554 25.1675 22.9714 24.0568 21.8381C22.9461 20.7047 22.0848 19.3901 21.4728 17.8941C20.8835 16.3981 20.5888 14.7887 20.5888 13.0661C20.5888 11.3434 20.8835 9.73405 21.4728 8.23805C22.0848 6.74205 22.9348 5.43872 24.0228 4.32805C25.1335 3.19472 26.4595 2.32205 28.0008 1.71005C29.5648 1.07539 31.2988 0.758052 33.2028 0.758052C35.0841 0.758052 36.7955 1.07539 38.3368 1.71005C39.9008 2.32205 41.2268 3.19472 42.3148 4.32805C43.4255 5.43872 44.2868 6.75339 44.8988 8.27205C45.5108 9.76805 45.8168 11.3661 45.8168 13.0661C45.8168 14.7887 45.5108 16.3981 44.8988 17.8941C44.2868 19.3901 43.4255 20.7047 42.3148 21.8381C41.2268 22.9714 39.9008 23.8554 38.3368 24.4901C36.7955 25.1247 35.0841 25.4421 33.2028 25.4421ZM33.2028 20.5801C34.2001 20.5801 35.1181 20.3987 35.9568 20.0361C36.8181 19.6507 37.5548 19.1181 38.1668 18.4381C38.7788 17.7581 39.2548 16.9647 39.5948 16.0581C39.9348 15.1287 40.1048 14.1314 40.1048 13.0661C40.1048 12.0007 39.9348 11.0147 39.5948 10.1081C39.2548 9.20139 38.7788 8.40805 38.1668 7.72805C37.5548 7.04805 36.8181 6.52672 35.9568 6.16405C35.1181 5.77872 34.2001 5.58605 33.2028 5.58605C32.1828 5.58605 31.2535 5.77872 30.4148 6.16405C29.5761 6.52672 28.8395 7.04805 28.2048 7.72805C27.5928 8.40805 27.1168 9.21272 26.7768 10.1421C26.4595 11.0487 26.3008 12.0234 26.3008 13.0661C26.3008 14.1314 26.4595 15.1287 26.7768 16.0581C27.1168 16.9647 27.5928 17.7581 28.2048 18.4381C28.8395 19.1181 29.5761 19.6507 30.4148 20.0361C31.2535 20.3987 32.1828 20.5801 33.2028 20.5801Z" fill="#666666"/>
<path d="M55.1269 25.0001C53.5176 25.0001 52.2596 24.5467 51.3529 23.6401C50.4463 22.7107 49.9929 21.4641 49.9929 19.9001V3.30805H55.2969V19.5941C55.2969 19.8661 55.3876 20.1041 55.5689 20.3081C55.7729 20.4894 56.0109 20.5801 56.2829 20.5801H60.0909V25.0001H55.1269ZM47.1369 11.8761V7.55805H60.0909V11.8761H47.1369Z" fill="#666666"/>
<path d="M63.3111 25.0001V0.180054H68.5811V8.71405C69.2611 8.17005 70.0091 7.77339 70.8251 7.52405C71.6411 7.27472 72.4571 7.15005 73.2731 7.15005C74.8598 7.15005 76.1971 7.49005 77.2851 8.17005C78.3958 8.85005 79.2231 9.77939 79.7671 10.9581C80.3338 12.1367 80.6171 13.4741 80.6171 14.9701V25.0001H75.3471V15.1741C75.3471 14.5167 75.1885 13.9387 74.8711 13.4401C74.5764 12.9187 74.1684 12.5107 73.6471 12.2161C73.1485 11.8987 72.5931 11.7401 71.9811 11.7401C71.3691 11.7401 70.8025 11.8874 70.2811 12.1821C69.7598 12.4767 69.3405 12.8734 69.0231 13.3721C68.7284 13.8707 68.5811 14.4374 68.5811 15.0721V25.0001H63.3111Z" fill="#666666"/>
<path d="M93.6731 25.0001C91.7011 25.0001 89.9671 24.6374 88.4711 23.9121C86.9751 23.1641 85.8078 22.1441 84.9691 20.8521C84.1531 19.5374 83.7451 18.0187 83.7451 16.2961C83.7451 14.3921 84.1418 12.7601 84.9351 11.4001C85.7285 10.0401 86.7825 8.99739 88.0971 8.27205C89.4345 7.52405 90.9078 7.15005 92.5171 7.15005C94.3531 7.15005 95.8831 7.53539 97.1071 8.30605C98.3538 9.07672 99.2945 10.1307 99.9291 11.4681C100.564 12.7827 100.881 14.2901 100.881 15.9901C100.881 16.2847 100.858 16.6361 100.813 17.0441C100.79 17.4294 100.756 17.7354 100.711 17.9621H89.2871C89.4231 18.5514 89.6838 19.0501 90.0691 19.4581C90.4545 19.8661 90.9418 20.1721 91.5311 20.3761C92.1205 20.5574 92.7778 20.6481 93.5031 20.6481H98.8411V25.0001H93.6731ZM89.1511 14.6641H95.7811C95.7358 14.3014 95.6678 13.9501 95.5771 13.6101C95.4865 13.2701 95.3391 12.9754 95.1351 12.7261C94.9538 12.4541 94.7385 12.2274 94.4891 12.0461C94.2398 11.8421 93.9451 11.6834 93.6051 11.5701C93.2878 11.4567 92.9251 11.4001 92.5171 11.4001C91.9958 11.4001 91.5311 11.4907 91.1231 11.6721C90.7151 11.8534 90.3751 12.1027 90.1031 12.4201C89.8311 12.7147 89.6158 13.0661 89.4571 13.4741C89.3211 13.8594 89.2191 14.2561 89.1511 14.6641Z" fill="#666666"/>
<path d="M103.816 25.0001V12.6921C103.816 11.1054 104.269 9.85872 105.176 8.95205C106.082 8.04539 107.34 7.59205 108.95 7.59205H114.016V11.8761H110.242C109.924 11.8761 109.652 11.9894 109.426 12.2161C109.199 12.4201 109.086 12.6921 109.086 13.0321V25.0001H103.816Z" fill="#666666"/>
<path d="M8.10906 49.4081C6.56773 49.4081 5.20773 49.0114 4.02906 48.2181C2.8504 47.4247 1.9324 46.3594 1.27506 45.0221C0.617729 43.6621 0.289062 42.1321 0.289062 40.4321C0.289062 38.6641 0.674396 37.0887 1.44506 35.7061C2.21573 34.3007 3.30373 33.1901 4.70906 32.3741C6.13706 31.5581 7.8144 31.1501 9.74106 31.1501C11.6904 31.1501 13.3451 31.5581 14.7051 32.3741C16.0877 33.1674 17.1417 34.2667 17.8671 35.6721C18.6151 37.0547 18.9891 38.6074 18.9891 40.3301V49.0001H13.8211V46.2121H13.6851C13.3677 46.8241 12.9597 47.3794 12.4611 47.8781C11.9624 48.3541 11.3504 48.7281 10.6251 49.0001C9.9224 49.2721 9.08373 49.4081 8.10906 49.4081ZM9.67306 44.8521C10.4664 44.8521 11.1577 44.6594 11.7471 44.2741C12.3591 43.8661 12.8237 43.3107 13.1411 42.6081C13.4584 41.9054 13.6171 41.1234 13.6171 40.2621C13.6171 39.4234 13.4584 38.6641 13.1411 37.9841C12.8237 37.3041 12.3591 36.7714 11.7471 36.3861C11.1577 35.9781 10.4664 35.7741 9.67306 35.7741C8.85706 35.7741 8.14306 35.9781 7.53106 36.3861C6.91906 36.7714 6.4544 37.3041 6.13706 37.9841C5.81973 38.6641 5.66106 39.4234 5.66106 40.2621C5.66106 41.1234 5.81973 41.9054 6.13706 42.6081C6.4544 43.3107 6.91906 43.8661 7.53106 44.2741C8.14306 44.6594 8.85706 44.8521 9.67306 44.8521Z" fill="#666666"/>
<path d="M25.5383 55.9021V51.3801H34.2423C34.5823 51.3801 34.8657 51.2667 35.0923 51.0401C35.319 50.8361 35.4323 50.5754 35.4323 50.2581V46.4161H35.3303C34.877 46.9374 34.3896 47.3794 33.8683 47.7421C33.3696 48.1047 32.803 48.3767 32.1683 48.5581C31.5563 48.7394 30.865 48.8301 30.0943 48.8301C28.553 48.8301 27.1703 48.4674 25.9463 47.7421C24.745 46.9941 23.793 45.9627 23.0903 44.6481C22.4103 43.3334 22.0703 41.8374 22.0703 40.1601C22.0703 38.5054 22.4216 36.9981 23.1243 35.6381C23.8496 34.2781 24.9036 33.1901 26.2863 32.3741C27.669 31.5581 29.3576 31.1501 31.3523 31.1501C33.2563 31.1501 34.8996 31.5467 36.2823 32.3401C37.6876 33.1107 38.7756 34.2101 39.5463 35.6381C40.317 37.0434 40.7023 38.6981 40.7023 40.6021V50.8021C40.7023 52.3661 40.2376 53.6014 39.3083 54.5081C38.4016 55.4374 37.1436 55.9021 35.5343 55.9021H25.5383ZM31.3863 44.4101C32.2023 44.4101 32.905 44.2287 33.4943 43.8661C34.0836 43.4807 34.537 42.9707 34.8543 42.3361C35.1716 41.7014 35.3303 40.9987 35.3303 40.2281C35.3303 39.4121 35.1716 38.6641 34.8543 37.9841C34.537 37.3041 34.0836 36.7714 33.4943 36.3861C32.905 35.9781 32.2023 35.7741 31.3863 35.7741C30.593 35.7741 29.8903 35.9667 29.2783 36.3521C28.689 36.7374 28.2356 37.2587 27.9183 37.9161C27.601 38.5734 27.4423 39.3101 27.4423 40.1261C27.4423 40.9194 27.601 41.6447 27.9183 42.3021C28.2356 42.9367 28.689 43.4467 29.2783 43.8321C29.8903 44.2174 30.593 44.4101 31.3863 44.4101Z" fill="#666666"/>
<path d="M53.6135 49.0001C51.6415 49.0001 49.9075 48.6374 48.4115 47.9121C46.9156 47.1641 45.7482 46.1441 44.9095 44.8521C44.0936 43.5374 43.6855 42.0187 43.6855 40.2961C43.6855 38.3921 44.0822 36.7601 44.8755 35.4001C45.6689 34.0401 46.7229 32.9974 48.0375 32.2721C49.3749 31.5241 50.8482 31.1501 52.4576 31.1501C54.2935 31.1501 55.8236 31.5354 57.0476 32.3061C58.2942 33.0767 59.2349 34.1307 59.8695 35.4681C60.5042 36.7827 60.8215 38.2901 60.8215 39.9901C60.8215 40.2847 60.7989 40.6361 60.7535 41.0441C60.7309 41.4294 60.6969 41.7354 60.6516 41.9621H49.2276C49.3636 42.5514 49.6242 43.0501 50.0095 43.4581C50.3949 43.8661 50.8822 44.1721 51.4715 44.3761C52.0609 44.5574 52.7182 44.6481 53.4436 44.6481H58.7815V49.0001H53.6135ZM49.0915 38.6641H55.7215C55.6762 38.3014 55.6082 37.9501 55.5176 37.6101C55.4269 37.2701 55.2795 36.9754 55.0756 36.7261C54.8942 36.4541 54.6789 36.2274 54.4296 36.0461C54.1802 35.8421 53.8855 35.6834 53.5455 35.5701C53.2282 35.4567 52.8656 35.4001 52.4576 35.4001C51.9362 35.4001 51.4715 35.4907 51.0635 35.6721C50.6555 35.8534 50.3155 36.1027 50.0435 36.4201C49.7715 36.7147 49.5562 37.0661 49.3975 37.4741C49.2615 37.8594 49.1595 38.2561 49.0915 38.6641Z" fill="#666666"/>
<path d="M63.8922 49.0001V38.9701C63.8922 37.5194 64.2435 36.2047 64.9462 35.0261C65.6488 33.8474 66.6462 32.9067 67.9382 32.2041C69.2528 31.5014 70.8055 31.1501 72.5962 31.1501C74.4095 31.1501 75.9508 31.5014 77.2202 32.2041C78.5122 32.9067 79.4982 33.8474 80.1782 35.0261C80.8582 36.2047 81.1982 37.5194 81.1982 38.9701V49.0001H75.9282V39.1061C75.9282 38.4941 75.7808 37.9387 75.4862 37.4401C75.1915 36.9187 74.7835 36.5107 74.2622 36.2161C73.7635 35.8987 73.1968 35.7401 72.5622 35.7401C71.9048 35.7401 71.3155 35.8987 70.7942 36.2161C70.2955 36.5107 69.8988 36.9187 69.6042 37.4401C69.3095 37.9387 69.1622 38.4941 69.1622 39.1061V49.0001H63.8922Z" fill="#666666"/>
<path d="M93.7102 49.0001C91.8968 49.0001 90.2875 48.6261 88.8822 47.8781C87.4768 47.1074 86.3662 46.0761 85.5502 44.7841C84.7342 43.4694 84.3262 41.9734 84.3262 40.2961C84.3262 38.6187 84.7342 37.1341 85.5502 35.8421C86.3662 34.5274 87.4768 33.4847 88.8822 32.7141C90.2875 31.9434 91.8968 31.5581 93.7102 31.5581H96.3282V36.0121H93.9142C93.0302 36.0121 92.2708 36.2047 91.6362 36.5901C91.0015 36.9527 90.5028 37.4627 90.1402 38.1201C89.8002 38.7547 89.6302 39.4801 89.6302 40.2961C89.6302 41.1121 89.8002 41.8487 90.1402 42.5061C90.5028 43.1407 91.0015 43.6507 91.6362 44.0361C92.2708 44.3987 93.0302 44.5801 93.9142 44.5801H96.3282V49.0001H93.7102Z" fill="#666666"/>
<path d="M99.2535 49.0001V31.5581H104.558V49.0001H99.2535ZM101.906 29.5861C101.067 29.5861 100.341 29.2801 99.7295 28.6681C99.1175 28.0561 98.8115 27.3307 98.8115 26.4921C98.8115 25.6534 99.1175 24.9281 99.7295 24.3161C100.341 23.6814 101.067 23.3641 101.906 23.3641C102.744 23.3641 103.47 23.6814 104.082 24.3161C104.694 24.9281 105 25.6534 105 26.4921C105 27.3307 104.694 28.0561 104.082 28.6681C103.47 29.2801 102.744 29.5861 101.906 29.5861Z" fill="#666666"/>
<path d="M117.53 49.0001C115.558 49.0001 113.824 48.6374 112.328 47.9121C110.832 47.1641 109.664 46.1441 108.826 44.8521C108.01 43.5374 107.602 42.0187 107.602 40.2961C107.602 38.3921 107.998 36.7601 108.792 35.4001C109.585 34.0401 110.639 32.9974 111.954 32.2721C113.291 31.5241 114.764 31.1501 116.374 31.1501C118.21 31.1501 119.74 31.5354 120.964 32.3061C122.21 33.0767 123.151 34.1307 123.786 35.4681C124.42 36.7827 124.738 38.2901 124.738 39.9901C124.738 40.2847 124.715 40.6361 124.67 41.0441C124.647 41.4294 124.613 41.7354 124.568 41.9621H113.144C113.28 42.5514 113.54 43.0501 113.926 43.4581C114.311 43.8661 114.798 44.1721 115.388 44.3761C115.977 44.5574 116.634 44.6481 117.36 44.6481H122.698V49.0001H117.53ZM113.008 38.6641H119.638C119.592 38.3014 119.524 37.9501 119.434 37.6101C119.343 37.2701 119.196 36.9754 118.992 36.7261C118.81 36.4541 118.595 36.2274 118.346 36.0461C118.096 35.8421 117.802 35.6834 117.462 35.5701C117.144 35.4567 116.782 35.4001 116.374 35.4001C115.852 35.4001 115.388 35.4907 114.98 35.6721C114.572 35.8534 114.232 36.1027 113.96 36.4201C113.688 36.7147 113.472 37.0661 113.314 37.4741C113.178 37.8594 113.076 38.2561 113.008 38.6641Z" fill="#666666"/>
<path d="M127.842 49.0001V44.8181H136.24C136.467 44.8181 136.671 44.7727 136.852 44.6821C137.034 44.5687 137.181 44.4214 137.294 44.2401C137.408 44.0587 137.464 43.8661 137.464 43.6621C137.464 43.4354 137.408 43.2314 137.294 43.0501C137.181 42.8687 137.034 42.7327 136.852 42.6421C136.671 42.5287 136.467 42.4721 136.24 42.4721H133.18C132.047 42.4721 131.016 42.2907 130.086 41.9281C129.18 41.5427 128.454 40.9534 127.91 40.1601C127.389 39.3441 127.128 38.2901 127.128 36.9981C127.128 36.0007 127.366 35.0941 127.842 34.2781C128.341 33.4621 129.01 32.8047 129.848 32.3061C130.71 31.8074 131.65 31.5581 132.67 31.5581H141.068V35.7741H133.486C133.169 35.7741 132.897 35.8761 132.67 36.0801C132.466 36.284 132.364 36.5334 132.364 36.8281C132.364 37.1454 132.466 37.4174 132.67 37.6441C132.897 37.8481 133.169 37.9501 133.486 37.9501H136.478C137.748 37.9501 138.836 38.1427 139.742 38.5281C140.672 38.8907 141.386 39.4801 141.884 40.2961C142.406 41.1121 142.666 42.1661 142.666 43.4581C142.666 44.4781 142.406 45.4074 141.884 46.2461C141.386 47.0847 140.706 47.7534 139.844 48.2521C139.006 48.7507 138.054 49.0001 136.988 49.0001H127.842Z" fill="#666666"/>
</g>
</svg>
